<svg width="20" height="14" viewBox="0 0 20 14" fill="none" xmlns="http://www.w3.org/2000/svg">
<path id="Vector" d="M20 1.4C20 1.75822 19.8605 2.11662 19.5815 2.38962L8.1529 13.5896C7.875 13.8644 7.50893 14 7.14286 14C6.77679 14 6.41161 13.8633 6.13304 13.5898L0.41875 7.98984C0.139732 7.7175 0 7.35875 0 7C0 6.20025 0.667411 5.6 1.42857 5.6C1.79411 5.6 2.15982 5.73672 2.43839 6.01016L7.14286 10.6225L17.5625 0.41125C17.8393 0.136938 18.2054 0 18.5714 0C19.3348 0 20 0.599375 20 1.4Z" fill="#037394"/>
</svg>
