<svg width="103" height="26" viewBox="0 0 103 26" fill="none" xmlns="http://www.w3.org/2000/svg">
<path id="horizontal_on_white_by_logaster 2 (Traced)" fill-rule="evenodd" clip-rule="evenodd" d="M0 12.6702V25.3405H1.9464H3.8928L3.87247 16.9424C3.8524 8.63208 3.85071 8.53617 3.71496 7.76459C3.55237 6.84018 3.55131 6.82244 3.6602 6.82244C3.71114 6.82244 3.91369 7.25674 4.16792 7.91078C4.61047 9.04922 4.82017 9.48534 5.51928 10.721C5.75182 11.1319 6.0637 11.7021 6.21243 11.988C6.36116 12.2739 6.71363 12.9172 6.99578 13.4175C7.27787 13.9178 7.60795 14.52 7.72927 14.7557C7.85058 14.9914 8.16059 15.5616 8.41815 16.0227C8.67578 16.4839 9.21731 17.4679 9.62159 18.2094L10.3567 19.5577H11.8877H13.4186L13.5697 19.2815C13.6527 19.1297 14.039 18.4206 14.428 17.7059C14.817 16.9911 15.3617 15.997 15.6386 15.4967C15.9153 14.9964 16.2406 14.397 16.3613 14.1647C16.4821 13.9324 16.7833 13.3769 17.0308 12.9301C17.2782 12.4834 17.645 11.8109 17.8459 11.4357C18.0468 11.0605 18.4153 10.388 18.6648 9.94127C18.9368 9.45454 19.2909 8.67671 19.5488 8.00019C19.9314 6.99599 20.0715 6.73414 20.1706 6.8368C20.2003 6.86753 20.1359 7.40716 19.9738 8.48738C19.9006 8.97567 19.8849 10.514 19.8849 17.2104V25.3405H21.8295H23.7741V12.6702V0L21.8452 0.00214451L19.9163 0.00428802L19.4606 0.830584C19.21 1.28502 18.6904 2.22704 18.306 2.9239C17.9216 3.62077 17.4729 4.44342 17.3088 4.75206C17.1449 5.06069 16.7682 5.74183 16.4718 6.26579C16.1755 6.78969 15.933 7.23211 15.933 7.249C15.933 7.26583 15.6278 7.82735 15.2549 8.49673C14.3006 10.2094 13.5076 11.6451 13.2009 12.2154C13.0569 12.4834 12.883 12.8051 12.8147 12.9301C12.4176 13.6568 12.2933 13.9222 12.1374 14.3759C12.0422 14.6528 11.9278 14.8794 11.8832 14.8794C11.8385 14.8794 11.713 14.6382 11.6041 14.3434C11.3691 13.7073 11.0376 13.0535 10.2037 11.5815C9.97582 11.1792 9.65628 10.5944 9.49356 10.2819C9.33091 9.96947 9.05321 9.46532 8.87644 9.16156C8.69961 8.8578 8.43226 8.37536 8.28228 8.08946C8.1323 7.80357 7.74915 7.10184 7.43074 6.53005C6.6546 5.13606 5.65289 3.31337 5.37745 2.79395C5.25425 2.56166 4.94086 1.99443 4.68092 1.53349C4.42103 1.07249 4.12953 0.538973 4.03312 0.347814L3.8578 0.000325195L1.9289 0.00012988L0 0V12.6702ZM35.2804 0.178683C35.2595 0.276926 34.9795 1.19068 34.6582 2.20917C34.337 3.22766 33.9839 4.36799 33.8736 4.74322C33.7634 5.11845 33.4093 6.2734 33.0869 7.30976C32.7645 8.34612 32.1894 10.2028 31.8089 11.4357C30.1958 16.6634 29.7015 18.258 29.1657 19.9609C28.8542 20.9511 28.4898 22.1352 28.3557 22.5924C28.2217 23.0496 28.0144 23.7381 27.895 24.1225L27.6778 24.8212L29.0349 25.2716C31.157 25.9758 31.2548 26.0032 31.3123 25.9094C31.3398 25.8645 31.4048 25.667 31.4567 25.4704C31.5085 25.2739 31.8307 24.2359 32.1726 23.1638C32.5144 22.0917 32.9251 20.783 33.085 20.2557L33.3759 19.2968L37.5266 19.3135L41.6772 19.3302L42.0153 20.4348C42.2012 21.0424 42.6187 22.3874 42.943 23.4237C43.2673 24.4601 43.5798 25.4615 43.6374 25.6491C43.695 25.8368 43.749 25.9903 43.7574 25.9903C43.7658 25.9903 44.2765 25.8302 44.892 25.6346C46.7771 25.0358 47.3291 24.833 47.3211 24.7427C47.3121 24.6397 46.9652 23.4967 45.935 20.1749C44.8241 16.593 44.0907 14.2199 43.2842 11.5981C42.8994 10.3474 42.2789 8.34449 41.9051 7.14732C41.5315 5.95014 41.177 4.7952 41.1176 4.58078C41.058 4.36636 40.7469 3.35762 40.4261 2.33912C40.1053 1.32063 39.8101 0.377703 39.7701 0.243659L39.6973 0H37.5079H35.3185L35.2804 0.178683ZM51.2491 12.6702V25.3405H53.1937H55.1382V20.4348V15.5292H56.0393H56.9405L58.0623 16.8088C58.6794 17.5126 59.6218 18.5841 60.1565 19.1898C61.2876 20.4712 61.9854 21.2678 62.6127 21.9942C62.8596 22.2801 63.276 22.7512 63.538 23.0411C63.8 23.3309 64.3672 23.9722 64.7984 24.466C65.2297 24.9598 65.7101 25.507 65.8661 25.6819L66.1496 26L67.5401 24.7119C68.3049 24.0034 68.9323 23.3928 68.9345 23.355C68.9367 23.3172 68.6632 22.9779 68.3269 22.601C67.9905 22.2241 67.3483 21.4969 66.8998 20.985C66.4513 20.473 65.8726 19.8176 65.6139 19.5285C65.3551 19.2393 64.7624 18.5667 64.2966 18.0337C63.8308 17.5007 63.2804 16.8769 63.0734 16.6475C62.8664 16.4181 62.6882 16.206 62.6774 16.1762C62.6627 16.1355 61.8816 15.4573 61.7326 15.3558C61.7198 15.347 61.7255 15.2959 61.7454 15.2422C61.7757 15.1606 61.8481 15.176 62.1909 15.3369C62.5958 15.5271 62.6121 15.5292 63.715 15.5274L64.8298 15.5257L66.7299 13.5944L68.6301 11.6631L68.6274 7.77797L68.6248 3.89288L66.7273 1.94738L64.8298 0.00188475L58.0394 0.000910151L51.2491 0V12.6702ZM73.894 12.6702V25.3405H81.6096H89.3252V23.4887V21.6369H83.5542H77.7832V10.8184V0H75.8386H73.894V12.6702ZM92.148 1.85181V3.70361H93.873H95.5981V12.6702V21.6369H93.873H92.148V23.4887V25.3405H97.574H103V23.4887V21.6369H101.244H99.4872V12.6702V3.70361H101.244H103V1.85181V0H97.574H92.148V1.85181ZM63.8488 4.52191L64.673 5.34022V7.75536V10.1705L63.8405 11.031L63.008 11.8915L59.0888 11.8748L55.1696 11.8581L55.1534 7.78083L55.1373 3.70361H59.081H63.0248L63.8488 4.52191ZM37.637 4.96765C37.637 4.98383 37.7237 5.56133 37.8297 6.25092C37.9975 7.34218 38.0864 7.70676 38.516 9.0641C38.7875 9.92178 39.1406 11.0621 39.3006 11.5981C39.4607 12.1342 39.8011 13.2307 40.0571 14.0347C40.3131 14.8389 40.5225 15.5186 40.5225 15.5454C40.5225 15.5723 39.1646 15.5941 37.5049 15.5941C35.1174 15.5941 34.4931 15.5772 34.5157 15.5129C34.5314 15.4683 34.8069 14.5838 35.1279 13.5474C35.4489 12.5111 36.005 10.72 36.3638 9.56734C36.7805 8.22845 37.0476 7.25466 37.1035 6.87085C37.3531 5.15653 37.4003 4.93815 37.5212 4.93815C37.5849 4.93815 37.637 4.9514 37.637 4.96765Z" fill="#037394"/>
</svg>
