<svg width="16" height="16" viewBox="0 0 16 16" fill="none" xmlns="http://www.w3.org/2000/svg">
<g id="8665646_phone_communication_icon 2">
<path id="image 12 (Traced)" fill-rule="evenodd" clip-rule="evenodd" d="M0.631057 3.07406C0.17559 3.26566 -0.00309201 3.60173 4.04153e-05 4.26082L0.00217317 4.71174L3.94136 6.78277C6.10787 7.92184 7.93441 8.8538 8.00032 8.8538C8.06617 8.8538 9.89304 7.92184 12.06 6.78277L16 4.71174L15.9799 4.16713C15.9584 3.5809 15.8795 3.41271 15.5011 3.14667C15.3181 3.01802 15.2741 3.0172 8.07403 3.00358C2.13902 2.99241 0.794877 3.00509 0.631057 3.07406ZM0.0130367 9.6337C0.0308982 13.3208 0.033964 13.3981 0.168658 13.568C0.244236 13.6632 0.388861 13.7994 0.490098 13.8706C0.673379 13.9994 0.704969 14 7.99559 14C15.2862 14 15.3178 13.9994 15.5011 13.8706C15.6023 13.7994 15.7469 13.6632 15.8225 13.568C15.9572 13.3981 15.9603 13.3208 15.9781 9.6337C15.9881 7.56518 15.9819 5.87278 15.9643 5.87278C15.9467 5.87278 14.199 6.79639 12.0805 7.92529C9.96215 9.05419 8.14734 9.98923 8.04771 10.0032C7.90601 10.023 7.01614 9.57559 3.96522 7.95065C1.81951 6.80782 0.0484264 5.87278 0.0294319 5.87278C0.0104374 5.87278 0.00303959 7.56518 0.0130367 9.6337Z" fill="#037394"/>
</g>
</svg>
