<svg width="14" height="16" viewBox="0 0 14 16" fill="none" xmlns="http://www.w3.org/2000/svg">
<g id="image 1050 (Traced)">
<path fill-rule="evenodd" clip-rule="evenodd" d="M1.47524 1.82781L0.00237067 3.15479L0.0011549 8.65825L0 14.1617L2.23393 14.1645L4.46786 14.1672L7.81115 14.8421C9.64997 15.2133 11.1639 15.5093 11.1755 15.4998C11.1872 15.4903 11.8452 12.4875 12.6379 8.82684C13.863 3.16922 14.0649 2.16685 13.9845 2.14233C13.8785 2.11005 10.3029 1.39487 10.2476 1.39487C10.2281 1.39487 10.2122 1.19353 10.2122 0.947436V0.5L6.58021 0.500418L2.94818 0.500895L1.47524 1.82781ZM9.89336 7.34577L9.87792 13.8336L5.12132 13.8437L0.364723 13.8539V8.60873V3.36359H1.76283H3.16093V2.11077V0.857949H6.53487H9.90886L9.89336 7.34577ZM2.83797 2.08094L2.84666 3.0653H1.72502H0.603434L0.985543 2.71791C1.19574 2.52682 1.68229 2.08452 2.06676 1.73504C2.45124 1.38556 2.7801 1.09891 2.79755 1.09807C2.81499 1.09724 2.83317 1.53954 2.83797 2.08094ZM12.0115 2.07939C12.9036 2.25902 13.6431 2.41538 13.6548 2.42696C13.6789 2.45052 10.9539 15.0645 10.9168 15.1008C10.9038 15.1137 9.84443 14.9144 8.56267 14.6578L6.23221 14.1915L8.22226 14.1758L10.2122 14.1601V7.95643C10.2122 2.5591 10.2238 1.75282 10.3009 1.75282C10.3497 1.75282 11.1195 1.89976 12.0115 2.07939ZM4.07274 3.0653C4.07274 3.24028 4.07949 3.24427 4.37668 3.24427C4.67387 3.24427 4.68061 3.24028 4.68061 3.0653C4.68061 2.89032 4.67387 2.88632 4.37668 2.88632C4.07949 2.88632 4.07274 2.89032 4.07274 3.0653ZM5.02509 2.92612C5.00279 2.94795 4.98455 3.02849 4.98455 3.10509V3.24427H6.1699H7.35525V3.0653V2.88632H6.21044C5.58075 2.88632 5.04734 2.90422 5.02509 2.92612ZM7.84155 3.0653V3.25024L8.19107 3.23234C8.51853 3.21558 8.5406 3.20502 8.5406 3.0653C8.5406 2.92558 8.51853 2.91502 8.19107 2.89826L7.84155 2.88036V3.0653ZM1.70204 4.5595V4.74115L2.11235 4.72355C2.50966 4.70643 2.52328 4.70071 2.54188 4.54184L2.56115 4.37778H2.13156H1.70204V4.5595ZM2.91779 4.55675V4.73572H4.40707H5.89636V4.55675V4.37778H4.40707H2.91779V4.55675ZM6.44344 4.55818V4.73853L7.49202 4.72224L8.5406 4.7059L8.55981 4.54184L8.57908 4.37778H7.51123H6.44344V4.55818ZM1.70204 6.01837V6.16752H3.40408H5.10612V6.01837V5.86923H3.40408H1.70204V6.01837ZM5.65321 6.01837V6.16752H6.44344H7.23368V6.01837V5.86923H6.44344H5.65321V6.01837ZM7.47682 6.01837C7.47682 6.16639 7.4809 6.16752 8.02391 6.16752C8.56692 6.16752 8.57099 6.16639 8.57099 6.01837C8.57099 5.87036 8.56692 5.86923 8.02391 5.86923C7.4809 5.86923 7.47682 5.87036 7.47682 6.01837ZM1.70204 7.50983C1.70204 7.65724 1.70812 7.65897 2.21873 7.65897C2.72934 7.65897 2.73542 7.65724 2.73542 7.50983C2.73542 7.36241 2.72934 7.36068 2.21873 7.36068C1.70812 7.36068 1.70204 7.36241 1.70204 7.50983ZM3.03936 7.50983V7.65897H4.55904H6.07872V7.50983V7.36068H4.55904H3.03936V7.50983ZM6.56502 7.50983V7.65897H7.56801H8.57099V7.50983V7.36068H7.56801H6.56502V7.50983ZM1.70204 8.97145V9.15042H4.13353H6.56502V8.97145V8.79248H4.13353H1.70204V8.97145ZM7.21532 8.83036C7.19198 8.85327 7.17289 8.93554 7.17289 9.01315C7.17289 9.15424 7.17331 9.1543 7.85674 9.13748L8.5406 9.1206V8.97145C8.5406 8.82284 8.53829 8.82225 7.89917 8.80548C7.54643 8.79624 7.23872 8.80745 7.21532 8.83036ZM1.70204 10.4651V10.6462L2.29472 10.6291L2.88739 10.612L2.9066 10.448L2.92587 10.2839H2.31393H1.70204V10.4651ZM3.59763 10.448L3.61684 10.612H6.07872H8.5406L8.55981 10.448L8.57908 10.2839H6.07872H3.57836L3.59763 10.448ZM1.70204 11.9245C1.70204 12.0725 1.70611 12.0737 2.24913 12.0737C2.79214 12.0737 2.79621 12.0725 2.79621 11.9245C2.79621 11.7765 2.79214 11.7754 2.24913 11.7754C1.70611 11.7754 1.70204 11.7765 1.70204 11.9245ZM3.22172 11.9245V12.0737H4.7414H6.26108V11.9245V11.7754H4.7414H3.22172V11.9245ZM6.86895 11.9245V12.0737H7.71997H8.57099V11.9245V11.7754H7.71997H6.86895V11.9245Z" fill="#484848"/>
<path d="M4.37668 3.24427C4.07949 3.24427 4.07274 3.24028 4.07274 3.0653C4.07274 2.89032 4.07949 2.88632 4.37668 2.88632C4.67387 2.88632 4.68061 2.89032 4.68061 3.0653C4.68061 3.24028 4.67387 3.24427 4.37668 3.24427Z" fill="#037394"/>
<path d="M4.98455 3.10509C4.98455 3.02849 5.00279 2.94795 5.02509 2.92612C5.04734 2.90422 5.58075 2.88632 6.21044 2.88632H7.35525V3.0653V3.24427H6.1699H4.98455V3.10509Z" fill="#037394"/>
<path d="M7.84155 3.25024V3.0653V2.88036L8.19107 2.89826C8.51853 2.91502 8.5406 2.92558 8.5406 3.0653C8.5406 3.20502 8.51853 3.21558 8.19107 3.23234L7.84155 3.25024Z" fill="#037394"/>
<path d="M1.70204 4.74115V4.5595V4.37778H2.13156H2.56115L2.54188 4.54184C2.52328 4.70071 2.50966 4.70643 2.11235 4.72355L1.70204 4.74115Z" fill="#037394"/>
<path d="M2.91779 4.73572V4.55675V4.37778H4.40707H5.89636V4.55675V4.73572H4.40707H2.91779Z" fill="#037394"/>
<path d="M6.44344 4.73853V4.55818V4.37778H7.51123H8.57908L8.55981 4.54184L8.5406 4.7059L7.49202 4.72224L6.44344 4.73853Z" fill="#037394"/>
<path d="M1.70204 6.16752V6.01837V5.86923H3.40408H5.10612V6.01837V6.16752H3.40408H1.70204Z" fill="#037394"/>
<path d="M5.65321 6.16752V6.01837V5.86923H6.44344H7.23368V6.01837V6.16752H6.44344H5.65321Z" fill="#037394"/>
<path d="M8.02391 6.16752C7.4809 6.16752 7.47682 6.16639 7.47682 6.01837C7.47682 5.87036 7.4809 5.86923 8.02391 5.86923C8.56692 5.86923 8.57099 5.87036 8.57099 6.01837C8.57099 6.16639 8.56692 6.16752 8.02391 6.16752Z" fill="#037394"/>
<path d="M2.21873 7.65897C1.70812 7.65897 1.70204 7.65724 1.70204 7.50983C1.70204 7.36241 1.70812 7.36068 2.21873 7.36068C2.72934 7.36068 2.73542 7.36241 2.73542 7.50983C2.73542 7.65724 2.72934 7.65897 2.21873 7.65897Z" fill="#037394"/>
<path d="M3.03936 7.65897V7.50983V7.36068H4.55904H6.07872V7.50983V7.65897H4.55904H3.03936Z" fill="#037394"/>
<path d="M6.56502 7.65897V7.50983V7.36068H7.56801H8.57099V7.50983V7.65897H7.56801H6.56502Z" fill="#037394"/>
<path d="M1.70204 9.15042V8.97145V8.79248H4.13353H6.56502V8.97145V9.15042H4.13353H1.70204Z" fill="#037394"/>
<path d="M7.17289 9.01315C7.17289 8.93554 7.19198 8.85327 7.21532 8.83036C7.23872 8.80745 7.54643 8.79624 7.89917 8.80548C8.53829 8.82225 8.5406 8.82284 8.5406 8.97145V9.1206L7.85674 9.13748C7.17331 9.1543 7.17289 9.15424 7.17289 9.01315Z" fill="#037394"/>
<path d="M1.70204 10.6462V10.4651V10.2839H2.31393H2.92587L2.9066 10.448L2.88739 10.612L2.29472 10.6291L1.70204 10.6462Z" fill="#037394"/>
<path d="M3.61684 10.612L3.59763 10.448L3.57836 10.2839H6.07872H8.57908L8.55981 10.448L8.5406 10.612H6.07872H3.61684Z" fill="#037394"/>
<path d="M2.24913 12.0737C1.70611 12.0737 1.70204 12.0725 1.70204 11.9245C1.70204 11.7765 1.70611 11.7754 2.24913 11.7754C2.79214 11.7754 2.79621 11.7765 2.79621 11.9245C2.79621 12.0725 2.79214 12.0737 2.24913 12.0737Z" fill="#037394"/>
<path d="M3.22172 12.0737V11.9245V11.7754H4.7414H6.26108V11.9245V12.0737H4.7414H3.22172Z" fill="#037394"/>
<path d="M6.86895 12.0737V11.9245V11.7754H7.71997H8.57099V11.9245V12.0737H7.71997H6.86895Z" fill="#037394"/>
</g>
</svg>
